<svg xmlns="http://www.w3.org/2000/svg" width="27.617" height="22.443" viewBox="0 0 27.617 22.443">
  <path id="_104501_twitter_bird_icon" data-name="104501_twitter_bird_icon" d="M31.191,12.983a11.274,11.274,0,0,1-3.254.892,5.676,5.676,0,0,0,2.491-3.135,11.342,11.342,0,0,1-3.6,1.376,5.671,5.671,0,0,0-9.654,5.168A16.088,16.088,0,0,1,5.5,11.363,5.673,5.673,0,0,0,7.25,18.928a5.65,5.65,0,0,1-2.566-.709c0,.024,0,.048,0,.072a5.67,5.67,0,0,0,4.545,5.556,5.7,5.7,0,0,1-1.493.2,5.614,5.614,0,0,1-1.066-.1,5.672,5.672,0,0,0,5.293,3.935,11.433,11.433,0,0,1-8.388,2.346,16.034,16.034,0,0,0,8.686,2.546c10.422,0,16.121-8.633,16.121-16.121q0-.368-.016-.734A11.476,11.476,0,0,0,31.191,12.983Z" transform="translate(-3.574 -10.326)" fill="#e6d7c9"/>
</svg>
